<mxfile host="app.diagrams.net" modified="2021-07-23T08:41:30.008Z" agent="5.0 (Windows NT 10.0; Win64; x64) AppleWebKit/537.36 (KHTML, like Gecko) Chrome/91.0.4472.164 Safari/537.36" etag="oHTdeJHedBoP_1wU1XLp" version="14.9.2" type="github">
  <diagram id="C5RBs43oDa-KdzZeNtuy" name="Page-1">
    <mxGraphModel dx="782" dy="468" grid="1" gridSize="10" guides="1" tooltips="1" connect="1" arrows="1" fold="1" page="1" pageScale="1" pageWidth="827" pageHeight="1169" math="0" shadow="0">
      <root>
        <mxCell id="WIyWlLk6GJQsqaUBKTNV-0" />
        <mxCell id="WIyWlLk6GJQsqaUBKTNV-1" parent="WIyWlLk6GJQsqaUBKTNV-0" />
        <mxCell id="SQUlKOyhzXeKd3z5jJuC-0" value="Actor" style="shape=umlActor;verticalLabelPosition=bottom;verticalAlign=top;html=1;outlineConnect=0;" vertex="1" parent="WIyWlLk6GJQsqaUBKTNV-1">
          <mxGeometry x="220" y="210" width="30" height="60" as="geometry" />
        </mxCell>
        <mxCell id="SQUlKOyhzXeKd3z5jJuC-1" value="" style="whiteSpace=wrap;html=1;aspect=fixed;" vertex="1" parent="WIyWlLk6GJQsqaUBKTNV-1">
          <mxGeometry x="300" y="90" width="310" height="310" as="geometry" />
        </mxCell>
        <mxCell id="SQUlKOyhzXeKd3z5jJuC-2" value="Stargram" style="text;html=1;strokeColor=none;fillColor=none;align=center;verticalAlign=middle;whiteSpace=wrap;rounded=0;" vertex="1" parent="WIyWlLk6GJQsqaUBKTNV-1">
          <mxGeometry x="435" y="90" width="40" height="20" as="geometry" />
        </mxCell>
        <mxCell id="SQUlKOyhzXeKd3z5jJuC-3" value="" style="endArrow=classic;html=1;" edge="1" parent="WIyWlLk6GJQsqaUBKTNV-1" source="SQUlKOyhzXeKd3z5jJuC-0" target="SQUlKOyhzXeKd3z5jJuC-4">
          <mxGeometry width="50" height="50" relative="1" as="geometry">
            <mxPoint x="280" y="270" as="sourcePoint" />
            <mxPoint x="410" y="190" as="targetPoint" />
          </mxGeometry>
        </mxCell>
        <mxCell id="SQUlKOyhzXeKd3z5jJuC-4" value="사진 클릭" style="ellipse;whiteSpace=wrap;html=1;" vertex="1" parent="WIyWlLk6GJQsqaUBKTNV-1">
          <mxGeometry x="350" y="150" width="100" height="50" as="geometry" />
        </mxCell>
        <mxCell id="SQUlKOyhzXeKd3z5jJuC-5" value="" style="endArrow=classic;html=1;" edge="1" parent="WIyWlLk6GJQsqaUBKTNV-1">
          <mxGeometry relative="1" as="geometry">
            <mxPoint x="435" y="160" as="sourcePoint" />
            <mxPoint x="511" y="130" as="targetPoint" />
          </mxGeometry>
        </mxCell>
        <mxCell id="SQUlKOyhzXeKd3z5jJuC-6" value="exclude" style="edgeLabel;resizable=0;html=1;align=center;verticalAlign=middle;" connectable="0" vertex="1" parent="SQUlKOyhzXeKd3z5jJuC-5">
          <mxGeometry relative="1" as="geometry" />
        </mxCell>
        <mxCell id="SQUlKOyhzXeKd3z5jJuC-10" value="태그 확인" style="ellipse;whiteSpace=wrap;html=1;" vertex="1" parent="WIyWlLk6GJQsqaUBKTNV-1">
          <mxGeometry x="490" y="190" width="100" height="50" as="geometry" />
        </mxCell>
        <mxCell id="SQUlKOyhzXeKd3z5jJuC-11" value="" style="endArrow=classic;html=1;exitX=0.953;exitY=0.933;exitDx=0;exitDy=0;exitPerimeter=0;" edge="1" parent="WIyWlLk6GJQsqaUBKTNV-1" source="SQUlKOyhzXeKd3z5jJuC-4">
          <mxGeometry relative="1" as="geometry">
            <mxPoint x="445" y="170" as="sourcePoint" />
            <mxPoint x="490" y="210" as="targetPoint" />
          </mxGeometry>
        </mxCell>
        <mxCell id="SQUlKOyhzXeKd3z5jJuC-12" value="exclude" style="edgeLabel;resizable=0;html=1;align=center;verticalAlign=middle;" connectable="0" vertex="1" parent="SQUlKOyhzXeKd3z5jJuC-11">
          <mxGeometry relative="1" as="geometry">
            <mxPoint x="13" y="-13" as="offset" />
          </mxGeometry>
        </mxCell>
        <mxCell id="SQUlKOyhzXeKd3z5jJuC-13" value="사진 다운로드" style="ellipse;whiteSpace=wrap;html=1;" vertex="1" parent="WIyWlLk6GJQsqaUBKTNV-1">
          <mxGeometry x="510" y="100" width="100" height="50" as="geometry" />
        </mxCell>
      </root>
    </mxGraphModel>
  </diagram>
</mxfile>
